<svg xmlns="http://www.w3.org/2000/svg" viewBox="0 0 48.67 48.67"><path d="M24.33 0a24.34 24.34 0 1024.34 24.33A24.33 24.33 0 0024.33 0zm15.78 31.62c-.52 4-4.74 4.77-8.06 5.1a67.92 67.92 0 01-11.93.28 23.16 23.16 0 01-10.63-3.2 1.31 1.31 0 01-.44-.47 1.08 1.08 0 01-.43-.67c-1.09-4.48 1.81-9.82 6.55-10.42 1.33-.17 2.7 0 4-.08a.78.78 0 00.23-.07c0-.12-.06-.35-.08-.42a14.19 14.19 0 01-.69-2.73c-.16-3.25 1.92-7.37 5.52-7.55 5.45-.27 6.49 6.12 5.34 10.57q1.2-.15 2.4-.27a6.25 6.25 0 015.26 1.43 10.08 10.08 0 012.96 8.5z" fill="#fff" data-name="Calque 2"/></svg>