<svg id="deposit_icon" data-name="deposit_icon" xmlns="http://www.w3.org/2000/svg" viewBox="0 0 58.23 58.23"><defs><style>.cls-1{fill:#fff}</style></defs><path class="cls-1" d="M30.3 34.83a6.13 6.13 0 01-3.88.13.51.51 0 00-.36.08l-4.86 4.24h14.48c-1.72-1.5-3.38-3-5.06-4.4a.4.4 0 00-.32-.05z"/><path class="cls-1" d="M29.11 0a29.12 29.12 0 1029.12 29.11A29.11 29.11 0 0029.11 0zM9.37 45.87V43.7h1.44v-2.19h-1.4v-2.19h9.12a.92.92 0 00.58-.19c1.9-1.63 3.79-3.28 5.69-4.93l.16-.14a7.07 7.07 0 01-.81-5.87A2.61 2.61 0 0126.52 26l.31-.08v-3.3h.73V4.48H29v18.1h.71v5.12c-.47-.06-.95-.13-1.43-.17a1.59 1.59 0 00-1.85 1.1 3.75 3.75 0 00.18 3.31 3.9 3.9 0 00.31.4l.91-.78a.79.79 0 011.17-.08.46.46 0 01.07.07c.2.16.39.33.63.54.2-.32.37-.64.58-.93a8.47 8.47 0 011.1-1.37 1.65 1.65 0 011.81-.28.8.8 0 01.55.78.68.68 0 01-.65.66 1.18 1.18 0 00-1 1c-.15.52-.33 1-.47 1.54a.44.44 0 00.12.4c2 1.79 4.08 3.57 6.13 5.34a.84.84 0 00.52.13H50.1v2.19H48v2.16h2.17v2.2z"/></svg>