<svg id="b" xmlns="http://www.w3.org/2000/svg" version="1.1" viewBox="0 0 58.2 58.2"><defs><style>.cls-1{fill:#205c66;stroke-width:0}</style></defs><path class="cls-1" d="M29.1 0C13 0 0 13 0 29.1s13 29.1 29.1 29.1 29.1-13 29.1-29.1S45.2 0 29.1 0zm-11 17.1v-2.5h6v2.5h-6zm0 5.1v-2.6h6v4.5h-3v-1.9h-3zm12.4 5.2h2.6V13.8h2.6v7.6h5.6v-2.1h-2.2v-2.2h2.2v-1.3h2.6v11.8h1.6v12.6h1.8v1.9H12.7v-1.9h1.5V20.4h.9v-10h3v1.4H24V8.3h3.1v12.2h3.4v7zm5.2-3.2h5.6v1.7h-2.8v1.3h-2.8v-3z"/><path class="cls-1" d="M27.7 30.6h4.7V40h-4.7zm-9.9-.6h5.8v5.8h-5.8zm17.7 0h5.8v5.8h-5.8z"/></svg>