<svg data-name="Calque 1" xmlns="http://www.w3.org/2000/svg" viewBox="0 0 487.15 240.54"><path d="M86.07 117.79c7.84-2.05 12.92-8.73 12.52-16.47a15.73 15.73 0 00-14.16-15c-6.07-.57-12.24-.11-18.63-.11v64.09h48L81.38 119zm312.28 1.12c2.78-.69 3.73-.92 4.69-1.17 7.84-2.06 12.92-8.74 12.52-16.48a15.73 15.73 0 00-14.15-15c-6.08-.56-12.25-.11-18.64-.11v64.05h48zm-199.78 31.18h19.5v-18.43h20.21V114.3h-19.47v-1h29V86.16h-49.24zm-27.66-57.43c-8.22-11.66-26.3-12.56-35.65-1.85-8.27 9.47-8.84 23-5.23 34.69h-1.56c-7.23.1-7.25 11.35 0 11.25 2.22 0 4.48-.08 6.76-.19a36.51 36.51 0 0029.5 16.48c7.25.21 7.24-11 0-11.25a24.41 24.41 0 01-16.31-6.79 36.48 36.48 0 0016.58-8c9.28-8.14 13.41-23.71 5.91-34.34zM159 117.17c-4.36 4.91-10.74 6.88-17.33 7.7-.15-.37-.31-.74-.44-1.11-3.22-9-3.9-27.52 9.17-29.22 13.91-1.81 16.03 14.28 8.6 22.63zm178.83-31.23h19.92v64.15h-19.92zm-84.11 63.41h24.89l7.18-14.35 7.21 14.35h24.9c-10.73-21.46-21.17-42.33-32.09-64.18-10.99 21.94-21.47 42.92-32.09 64.18z" fill="#1d1d1b"/></svg>