<svg id="magnifier" data-name="magnifier" xmlns="http://www.w3.org/2000/svg" viewBox="0 0 47.34 47.34"><defs><style>.cls-1{fill:#fff}</style></defs><path class="cls-1" d="M22 10.13a7.23 7.23 0 10-.84 14.43 8 8 0 002.23-.31 7.74 7.74 0 003.67-2.31 7 7 0 001.75-4.59A7.23 7.23 0 0022 10.13z"/><path class="cls-1" d="M23.67 0a23.67 23.67 0 1023.67 23.67A23.67 23.67 0 0023.67 0zm12.52 38.85l-.12.08a2.29 2.29 0 01-3-.62l-7.76-11.24a11.66 11.66 0 01-4 .71c-6.09 0-11-4.66-11-10.4S15.2 7 21.29 7s11 4.66 11 10.41A10.08 10.08 0 0129 24.8l7.71 11.25a2 2 0 01-.52 2.8z"/></svg>