<svg data-name="Calque 3" xmlns="http://www.w3.org/2000/svg" viewBox="0 0 58.2 58.2"><path d="M29.1 0C13 0 0 13 0 29.1s13 29.1 29.1 29.1 29.1-13 29.1-29.1S45.2 0 29.1 0zM21 21.3c.3-2.4.9-5.3 3.3-6.9l1.5 5.1.2.5c.4.4.8.4 1.1 0v-1.1c-.1 0-.6-5.4-.6-5.4.7-.2 1.5-.3 2.4-.3s1.4 0 2 .2l-.5 5.3V20c.2.4.6.4 1 0l.3-.9 1.4-4.9c2.8 1.5 3.7 4.5 4 7.3.5.3 1.5 1 .2 1.4-.9.3-.8.4-1.4.3v.2c0 .2-.3.5-.6.9-.7.6-1.9 1.4-4.1 1.7-.6 0-1.3.1-2.1.1-1.2 0-2.1 0-2.9-.3-1.7-.3-2.7-.9-3.3-1.5-.7-.6-.8-1.1-.8-1.1-.5 0-.6-.2-1-.3-.8-.4-.5-.8 0-1.5zM48.3 44H9.9c-.4-7 4.6-11.6 14.7-12-1.5-2.3-2-3.2-2-6.4v-.4c.7 1.1 2.5 2.6 6.4 2.6s5.5-1.5 6.2-2.6c0 3.6-.9 5.9-2.2 6.9 11.4 0 15.9 4.3 15.4 11.8z" fill="#fff"/></svg>