<svg xmlns="http://www.w3.org/2000/svg" viewBox="0 0 48.67 48.67"><defs><style>.cls-1{fill:#fff;}</style></defs><g id="Calque_2" data-name="Calque 2"><path class="cls-1" d="M24.33,0A24.34,24.34,0,1,0,48.67,24.33,24.33,24.33,0,0,0,24.33,0ZM40.11,31.62c-.52,4-4.74,4.77-8.06,5.1A67.92,67.92,0,0,1,20.12,37a23.16,23.16,0,0,1-10.63-3.2,1.31,1.31,0,0,1-.44-.47,1.08,1.08,0,0,1-.43-.67c-1.09-4.48,1.81-9.82,6.55-10.42,1.33-.17,2.7,0,4-.08a.78.78,0,0,0,.23-.07c0-.12-.06-.35-.08-.42a14.19,14.19,0,0,1-.69-2.73c-.16-3.25,1.92-7.37,5.52-7.55,5.45-.27,6.49,6.12,5.34,10.57q1.2-.15,2.4-.27a6.25,6.25,0,0,1,5.26,1.43A10.08,10.08,0,0,1,40.11,31.62Z"/></g></svg>