<?xml version="1.0" encoding="UTF-8"?>
<svg id="b" xmlns="http://www.w3.org/2000/svg" version="1.1" viewBox="0 0 58.2 58.2">
  <defs>
    <style>
      .cls-1 {
        fill: #205c66;
        stroke-width: 0px;
      }
    </style>
  </defs>
  <path class="cls-1" d="M29.1,0C13,0,0,13,0,29.1s13,29.1,29.1,29.1,29.1-13,29.1-29.1,0,0,0,0C58.2,13,45.2,0,29.1,0h0ZM18.1,17.1v-2.5h6v2.5h-6ZM18.1,22.2v-2.6h6v4.5h-3v-1.9h-3ZM30.5,27.4h2.6v-13.6h2.6v7.6h5.6v-2.1h-2.2v-2.2h2.2v-1.3h2.6v11.8h1.6v12.6h1.8v1.9H12.7v-1.9h1.5v-19.8h.9v-10h3v1.4h5.9v-3.5h3.1v12.2h3.4v7h0ZM35.7,24.2h5.6v1.7h-2.8v1.3h-2.8v-3Z"/>
  <rect class="cls-1" x="27.7" y="30.6" width="4.7" height="9.4"/>
  <rect class="cls-1" x="17.8" y="30" width="5.8" height="5.8"/>
  <rect class="cls-1" x="35.5" y="30" width="5.8" height="5.8"/>
</svg>