<svg id="deposit_icon" data-name="deposit_icon" xmlns="http://www.w3.org/2000/svg" viewBox="0 0 58.23 58.23"><defs><style>.cls-1{fill:#fff;}</style></defs><path class="cls-1" d="M30.3,34.83a6.13,6.13,0,0,1-3.88.13.51.51,0,0,0-.36.08L21.2,39.28H35.68c-1.72-1.5-3.38-3-5.06-4.4A.4.4,0,0,0,30.3,34.83Z"/><path class="cls-1" d="M29.11,0A29.12,29.12,0,1,0,58.23,29.11,29.11,29.11,0,0,0,29.11,0ZM9.37,45.87V43.7h1.44V41.51H9.41V39.32h9.12a.92.92,0,0,0,.58-.19c1.9-1.63,3.79-3.28,5.69-4.93l.16-.14a7.07,7.07,0,0,1-.81-5.87A2.61,2.61,0,0,1,26.52,26l.31-.08V22.62l.73,0V4.48H29v18.1l.71,0V27.7c-.47-.06-.95-.13-1.43-.17a1.59,1.59,0,0,0-1.85,1.1,3.75,3.75,0,0,0,.18,3.31,3.9,3.9,0,0,0,.31.4l.91-.78A.79.79,0,0,1,29,31.48a.46.46,0,0,1,.07.07c.2.16.39.33.63.54.2-.32.37-.64.58-.93a8.47,8.47,0,0,1,1.1-1.37,1.65,1.65,0,0,1,1.81-.28.8.8,0,0,1,.55.78.68.68,0,0,1-.65.66,1.18,1.18,0,0,0-1,1c-.15.52-.33,1-.47,1.54a.44.44,0,0,0,.12.4c2,1.79,4.08,3.57,6.13,5.34a.84.84,0,0,0,.52.13H50.1v2.19H48v2.16h2.17v2.2Z"/></svg>