<?xml version="1.0" encoding="UTF-8"?>
<svg id="b" data-name="Calque 2" xmlns="http://www.w3.org/2000/svg" viewBox="0 0 58.2 58.2">
  <defs>
    <style>
      .d {
        fill: #fff;
        stroke-width: 0px;
      }
    </style>
  </defs>
  <path class="d" d="M29.1,0C13,0,0,13,0,29.1s13,29.1,29.1,29.1,29.1-13,29.1-29.1,0,0,0,0C58.2,13,45.2,0,29.1,0c0,0,0,0,0,0ZM18.1,17.1v-2.5s6,0,6,0v2.5s-6,0-6,0ZM18.1,22.3v-2.6h6v4.5h-3v-1.9h-3ZM30.5,27.4h2.6v-13.6h2.6v7.6h5.6v-2.1h-2.2v-2.2h2.2s0-1.3,0-1.3h2.6v11.8s1.6,0,1.6,0v12.6h1.8v1.9H12.8v-1.9h1.5v-19.8h.9v-10h3v1.4h5.9v-3.5s3.1,0,3.1,0v12.2h3.4v7ZM35.7,24.2h5.6v1.7h-2.8v1.3h-2.8v-3Z"/>
  <rect class="d" x="27.7" y="30.7" width="4.7" height="9.4"/>
  <rect class="d" x="17.8" y="30" width="5.8" height="5.8"/>
  <rect class="d" x="35.6" y="30" width="5.8" height="5.8"/>
</svg>