<svg id="Calque_1" data-name="Calque 1" xmlns="http://www.w3.org/2000/svg" viewBox="0 0 47.46 47.46"><defs><style>.cls-1{fill:#fff;}</style></defs><path class="cls-1" d="M33.72,26.17c-.41-2.74-1-5.44-1.27-8.2a46.12,46.12,0,0,1-.15-4.7c0-.63,0-1.26.06-1.88a4.33,4.33,0,0,0,0-.64c-.09,0-.42-.1-.62-.11a126.92,126.92,0,0,0-16.89.41,130.45,130.45,0,0,0,.35,17.12c.13,1.47.27,2.94.45,4.4.07.61.15,1.21.23,1.81a5.09,5.09,0,0,1,.12.79,9.72,9.72,0,0,1,2.35.14c.72,0,1.44,0,2.17,0,1.36,0,2.73,0,4.09-.09,1.53-.07,3.05-.19,4.57-.36.77-.09,1.53-.18,2.3-.3a6.58,6.58,0,0,0,2-.33c.74-.59.57-2.9.56-3.84A29.08,29.08,0,0,0,33.72,26.17ZM18.21,22.42a1.26,1.26,0,0,1,1.25-1.25c2.62-.1,5.25-.26,7.87-.49a1.26,1.26,0,0,1,1.25,1.25,1.28,1.28,0,0,1-1.25,1.25c-2.62.23-5.25.39-7.87.49A1.26,1.26,0,0,1,18.21,22.42Zm9.66,6.45a28.92,28.92,0,0,1-7.88.47,1.29,1.29,0,0,1-1.25-1.25A1.26,1.26,0,0,1,20,26.84a26.64,26.64,0,0,0,7.22-.38,1.29,1.29,0,0,1,1.54.88A1.25,1.25,0,0,1,27.87,28.87ZM28,17.38H18.88a1.25,1.25,0,0,1,0-2.5H28A1.25,1.25,0,0,1,28,17.38Z"/><path class="cls-1" d="M23.73,0A23.73,23.73,0,1,0,47.46,23.73,23.72,23.72,0,0,0,23.73,0ZM36.22,34.43a2.89,2.89,0,0,1-2.37,2.33,55,55,0,0,1-10.16,1.05c-1.77.07-3.53.07-5.3,0-1.19,0-3,.19-4-.6s-.92-2.58-1.08-3.77c-.18-1.46-.34-2.92-.47-4.38A130.38,130.38,0,0,1,12.43,9.9a1.22,1.22,0,0,1,.66-1.05,1.33,1.33,0,0,1,.59-.2C17.63,8.26,21.6,8,25.57,8q3,0,6,.11c1.46.07,2.91.16,3.29,1.85.32,1.46,0,3.21,0,4.7a38.57,38.57,0,0,0,.36,5c.48,3.26,1.26,6.5,1.42,9.81A17.51,17.51,0,0,1,36.22,34.43Z"/></svg>