<svg id="Calque_1" data-name="Calque 1" xmlns="http://www.w3.org/2000/svg" viewBox="0 0 526.77 280.15"><defs><style>.cls-1{fill:#fff;}</style></defs><path class="cls-1" d="M346.51,279V98.8c18.69,0,37.08-.27,55.43.43,1.74.07,4.52,6.24,4.62,9.64.49,16.18.22,32.39.22,50h59.45v60.32h60.54V279Z"/><polygon class="cls-1" points="243.52 98.75 228.29 129.66 213.05 98.75 138.9 98.75 228.29 280.15 317.68 98.75 243.52 98.75"/><path class="cls-1" d="M111.26,65.81c4.2-10.07,11.34-19.33,18-27.91,3.57-4.63,7.33-9.12,11.14-13.56,1.85-2.16,3.75-4.29,5.61-6.44.42-.48,3.49-3.29,3.47-3.74.06,1.31-3.82-1.88-1.26.56.63.61,1.45,1.1,2.11,1.7a62.65,62.65,0,0,1,5.61,6,153.19,153.19,0,0,1,9.42,12.4C171.47,44,178.05,53.92,181.9,64.3c1.35,3.65,4.88,6.13,8.87,5,3.51-1,6.4-5.21,5-8.88-4.75-12.79-12.37-25.08-20.29-36.16A148.22,148.22,0,0,0,163,8.69c-4.26-4.51-10-9.77-16.69-8.5-5.64,1.08-9,5.8-12.59,9.86C129,15.47,124.3,21,119.85,26.64c-8.63,11-17.1,22.37-22.5,35.33-1.5,3.6,1.62,7.94,5,8.88,4.15,1.14,7.37-1.43,8.87-5Z"/><path class="cls-1" d="M87,64.28c-1.21-.56-1.49-.68-.85-.34s.36.2-.72-.58a6.14,6.14,0,0,1,.43.45q-1.18-1.59-.57-.69c.2.38.39.79.6,1.16-1.11-2-.35-.82-.13-.14.59,1.8,1.12,3.65,1.63,5.48,1.52,5.47,2.25,12.84,8.68,14.74A9.49,9.49,0,0,0,104,83a29.9,29.9,0,0,0,3-2.32l.66-.57c.52-.43,1.71-1-.32.22.36-.23.69-.48,1.06-.69s.51-.27.77-.39c-1.08.44-1.26.52-.54.25,1-.28,1.92-.57,2.91-.79a44.77,44.77,0,0,0,8-2.44c1.54-.65,2.9-2.78,3.32-4.31A7.4,7.4,0,0,0,122,66.4a7.27,7.27,0,0,0-4.31-3.31,8.51,8.51,0,0,0-5.56.73c2.09-.89.16-.14-.31,0s-1.12.3-1.69.43c-1,.23-2,.42-3,.65a21,21,0,0,0-6.76,2.66,29.87,29.87,0,0,0-2.83,2.17,12.64,12.64,0,0,0-1.76,1.48c.22-.27,1.66-1.09.63-.52-.74.41-1.43.43.73-.23-.7.17-.25.12,1.35-.16l1.56.21A5.59,5.59,0,0,1,102.6,72c-.47-.48-.26-.18.65.89-.59-1.51.29,1.11.06.33-.15-.52-.32-1-.46-1.57-.3-1.13-.58-2.27-.88-3.41-.55-2.13-1.2-4.22-1.8-6.34a26.52,26.52,0,0,0-2.24-5.78,12.62,12.62,0,0,0-7.07-5.74c-3.57-1.24-8,1.41-8.88,5a7.4,7.4,0,0,0,5,8.87Z"/><path class="cls-1" d="M43.72,191.24,134.63,279H0V99.23c17.94,0,35.24-1.28,52.28.32,22.39,2.09,38.58,20.51,39.7,42.18S78.87,182.19,56.86,188C54.18,188.65,51.5,189.29,43.72,191.24Z"/></svg>