<svg id="Calque_1" data-name="Calque 1" xmlns="http://www.w3.org/2000/svg" viewBox="0 0 126.55 74.92"><defs><style>.cls-1{fill:#fff;}</style></defs><g id="Groupe_334" data-name="Groupe 334"><g id="Groupe_313" data-name="Groupe 313"><path id="Tracé_280" data-name="Tracé 280" class="cls-1" d="M60.67,74.75H48.08c-1.69,0-3.5.27-4.26-.54s-.65-3-.65-7.46V2.46a3.32,3.32,0,0,1,.21-1.39c.6-1,.82-.86,1.9-.89C61.65,0,67.72.18,67.72.18c1.1.3,1.1.44,1.1,8,0,8.94-.1,9.42-1.29,9.17-.33-.05-.74-.16-.74-.16s-4.33-.16-4.61.28c-.47.79-.47.66-.47,2.3v6.34c0,1.13-.19,2.49.56,3.37s3.13.63,4,.76c1.1.18,1,.67,1,9.15,0,8,.18,8.52-1,8.38a15.65,15.65,0,0,0-3.87.21c-.85.66-.66,1.94-.66,3.58V72.48c0,1.26-.66,2.27-1,2.27"/><path id="Tracé_281" data-name="Tracé 281" class="cls-1" d="M121.68,37.49c.38-.43,4.87-1.29,4.87-9.69V16.89c0-10.5-4.39-16.72-11.23-16.72h-10c-2.16,0-2.16-.11-2.16,3.33V71.59c0,3.43,0,3.32,2.16,3.32h10c6.84,0,11.23-6.22,11.23-16.73V47.29c0-8.4-4.49-9.27-4.87-9.69a.11.11,0,0,1,0-.06.08.08,0,0,1,0,0"/><path id="Tracé_282" data-name="Tracé 282" class="cls-1" d="M99.32,73.66c-3.61-29.85-4.24-40.92-7.88-71.1C91.1-.21,87.83.11,85.74.11c-1.88,0-8.91-.61-9.08,1-3.28,30.59-4.18,40.3-8,72.54-.08,1.12,5.08,1.12,6.39,1.12h4.61a1.4,1.4,0,0,0,1.25-1.29C81,72.49,82.56,62,82.56,62a.42.42,0,0,1,.33-.3c.27,0,2.2-.18,2.33.07s1.32,9.05,1.32,9.05a30.08,30.08,0,0,0,.67,3.63.88.88,0,0,0,.52.31h5.52c2.07,0,6.22.11,6.07-1.12"/><path id="Tracé_283" data-name="Tracé 283" class="cls-1" d="M.32,53.73H.75v-.64a1.3,1.3,0,0,1,1.14-1.44.79.79,0,0,1,.22,0,1.75,1.75,0,0,1,.94.28v.16l-.4.4a1.05,1.05,0,0,0-.49-.1c-.35,0-.66.16-.66.81v.54H2v.69H1.51v2.63H.75V54.42H.32Z"/><path id="Tracé_284" data-name="Tracé 284" class="cls-1" d="M4.81,55.58H4c-.48,0-.58.25-.58.43s.17.47.65.47a.79.79,0,0,0,.79-.79.45.45,0,0,0,0-.11m.71.72h.29V57H5.24l-.3-.31a1.15,1.15,0,0,1-.9.39c-.85,0-1.38-.44-1.38-1.11,0-.39.18-1,1.37-1h.76v-.2c0-.3-.34-.47-.66-.47a.64.64,0,0,0-.61.33l-.64-.3a1.29,1.29,0,0,1,1.29-.7c.67,0,1.36.31,1.36,1Z"/><path id="Tracé_285" data-name="Tracé 285" class="cls-1" d="M9.36,55.38a1,1,0,0,0-1-.93,1,1,0,1,0,1,1v0M6.73,57v-5.1L7,51.69h.5v2.36a1.33,1.33,0,0,1,1-.4,1.74,1.74,0,0,1,0,3.47,1.25,1.25,0,0,1-.95-.4L7.16,57Z"/><path id="Tracé_286" data-name="Tracé 286" class="cls-1" d="M11.78,57H11V54.41h-.29v-.68h.61l.36.36a1,1,0,0,1,.82-.43.88.88,0,0,1,.33.06l-.22.8a.67.67,0,0,0-.24,0,.58.58,0,0,0-.61.53Z"/><path id="Tracé_287" data-name="Tracé 287" class="cls-1" d="M13.86,51.83a.55.55,0,0,1,.54.55.52.52,0,0,1-.51.56.55.55,0,0,1-.57-.51v0a.55.55,0,0,1,.54-.55M14.3,57h-.76V54.41h-.28v-.68H14l.27.27Z"/><path id="Tracé_288" data-name="Tracé 288" class="cls-1" d="M17.75,55.38a1,1,0,0,0-.92-1h0a1,1,0,0,0,0,2,1,1,0,0,0,.95-1v0m-.06,3.45v-2.1a1.37,1.37,0,0,1-1,.39,1.74,1.74,0,0,1,0-3.47,1.29,1.29,0,0,1,1,.4l.32-.33h.43v5.1Z"/><path id="Tracé_289" data-name="Tracé 289" class="cls-1" d="M19.51,55.6V53.73h.77V55.6c0,.52.3.79.66.79s.65-.27.65-.79V53.73h.76V55.6a1.42,1.42,0,0,1-2.84.21V55.6"/><path id="Tracé_290" data-name="Tracé 290" class="cls-1" d="M23.9,55h1.59a.77.77,0,0,0-.78-.66.82.82,0,0,0-.81.66m1.57,1,.62.35a1.6,1.6,0,0,1-1.37.83,1.74,1.74,0,0,1,0-3.48,1.62,1.62,0,0,1,1.55,1.66l-.29.28h-2.1a.85.85,0,0,0,.85.82.92.92,0,0,0,.75-.46"/><path id="Tracé_291" data-name="Tracé 291" class="cls-1" d="M3.15,63.21a1,1,0,0,0-.93-1h0a1,1,0,0,0,0,2,1,1,0,0,0,1-1v0m-.07-1.33V59.77l.26-.26h.5v4.61h.29v.75H3.41l-.32-.32a1.33,1.33,0,0,1-1,.4,1.74,1.74,0,0,1,0-3.47,1.29,1.29,0,0,1,1,.4"/><path id="Tracé_292" data-name="Tracé 292" class="cls-1" d="M5.35,62.81H7a.78.78,0,0,0-.79-.66.82.82,0,0,0-.81.66m1.58,1,.62.34A1.6,1.6,0,0,1,6.17,65a1.74,1.74,0,0,1,0-3.47,1.6,1.6,0,0,1,1.55,1.65l-.28.28H5.32a.86.86,0,0,0,.85.82.92.92,0,0,0,.76-.46"/><path id="Tracé_293" data-name="Tracé 293" class="cls-1" d="M12.89,63.21a1,1,0,1,0-1,1,1,1,0,0,0,1-1v0m-2.63,1.66v-5.1l.26-.25H11v2.36a1.31,1.31,0,0,1,1-.4A1.74,1.74,0,0,1,12,65a1.29,1.29,0,0,1-1-.4l-.32.32Z"/><path id="Tracé_294" data-name="Tracé 294" class="cls-1" d="M16.83,63.21a1,1,0,1,0-.94,1,1,1,0,0,0,.94-1h0m.77,0a1.72,1.72,0,1,1-1.71-1.73,1.73,1.73,0,0,1,1.71,1.73"/><path id="Tracé_295" data-name="Tracé 295" class="cls-1" d="M19.25,64.87h-.76V62.24H18.2v-.69h.61l.36.37a1,1,0,0,1,.82-.43,1.14,1.14,0,0,1,.33,0l-.22.8a.64.64,0,0,0-.24,0,.58.58,0,0,0-.61.53Z"/><path id="Tracé_296" data-name="Tracé 296" class="cls-1" d="M23.33,63.21a1,1,0,0,0-.93-1h0a1,1,0,0,0,0,2,1,1,0,0,0,1-1v0m-.07-1.33V59.77l.26-.26H24v4.61h.29v.75h-.72l-.32-.32a1.33,1.33,0,0,1-1,.4,1.74,1.74,0,0,1,0-3.47,1.29,1.29,0,0,1,1,.4"/><path id="Tracé_297" data-name="Tracé 297" class="cls-1" d="M25.53,62.81h1.6a.78.78,0,0,0-.79-.66.82.82,0,0,0-.81.66m1.58,1,.62.34a1.6,1.6,0,0,1-1.38.84,1.74,1.74,0,0,1,0-3.47,1.6,1.6,0,0,1,1.55,1.65l-.28.28H25.5a.85.85,0,0,0,.85.82.92.92,0,0,0,.76-.46"/><path id="Tracé_298" data-name="Tracé 298" class="cls-1" d="M30.58,63.42h-.86c-.48,0-.58.24-.58.42s.17.47.65.47a.79.79,0,0,0,.79-.79v-.1m.71.71h.28v.74H31l-.3-.3a1.19,1.19,0,0,1-.9.39c-.85,0-1.37-.45-1.37-1.12,0-.39.18-1,1.37-1h.75v-.2c0-.3-.33-.47-.65-.47a.64.64,0,0,0-.61.33l-.64-.3a1.28,1.28,0,0,1,1.29-.7c.67,0,1.35.32,1.35,1.05Z"/><path id="Tracé_299" data-name="Tracé 299" class="cls-1" d="M32.42,63.43V61.56h.77v1.87c0,.53.3.79.65.79s.65-.26.65-.79V61.56h.77v1.87a1.42,1.42,0,1,1-2.84.19.61.61,0,0,1,0-.19"/></g><path id="Tracé_300" data-name="Tracé 300" class="cls-1" d="M38.22,61.56l-.73,1-.74-1h-.88L37,63.22l-1.17,1.65h.88l.74-1,.73,1h.88l-1.18-1.66,1.18-1.66Z"/><g id="Groupe_314" data-name="Groupe 314"><path id="Tracé_301" data-name="Tracé 301" class="cls-1" d="M1.6,72.7H.84V70.06H.55v-.68h.61l.32.33a1.47,1.47,0,0,1,1-.39,1.06,1.06,0,0,1,.9.45,1.6,1.6,0,0,1,1.08-.45c.6,0,1.15.41,1.15,1.38v2H4.81v-2c0-.44-.24-.67-.59-.67a.57.57,0,0,0-.64.5V72.7H2.83v-2A.59.59,0,0,0,2.24,70c-.38,0-.65.22-.65.52Z"/><path id="Tracé_302" data-name="Tracé 302" class="cls-1" d="M7,70.63h1.6A.79.79,0,0,0,7.83,70a.82.82,0,0,0-.81.65m0-2c.28-.3.6-.69.84-1a.46.46,0,0,1,.34-.16.76.76,0,0,1,.16,0,.44.44,0,0,1,.26.39.46.46,0,0,1-.21.39c-.1,0-1.14.58-1.14.58Zm1.63,3,.62.34a1.61,1.61,0,0,1-1.38.84,1.74,1.74,0,0,1,0-3.48A1.61,1.61,0,0,1,9.38,71l-.29.28H7a.88.88,0,0,0,.86.83.94.94,0,0,0,.76-.47"/></g><path id="Tracé_303" data-name="Tracé 303" class="cls-1" d="M10.48,68.1l-.25.26v1H9.8v.68h.43v2.31l.32.33h.72V72H11v-1.9h.53v-.68H11V68.1Z"/><g id="Groupe_315" data-name="Groupe 315"><path id="Tracé_304" data-name="Tracé 304" class="cls-1" d="M13.16,72.7h-.75V70.06h-.3v-.68h.61l.36.36a1,1,0,0,1,.82-.42,1,1,0,0,1,.33.05l-.22.8a.67.67,0,0,0-.24,0,.58.58,0,0,0-.61.52Z"/><path id="Tracé_305" data-name="Tracé 305" class="cls-1" d="M17.22,71a.95.95,0,1,0-.94,1,.95.95,0,0,0,.94-1v0M18,71a1.72,1.72,0,1,1-1.71-1.73A1.72,1.72,0,0,1,18,71"/><path id="Tracé_306" data-name="Tracé 306" class="cls-1" d="M21.53,71a1,1,0,1,0-2-.09V71a1,1,0,0,0,2,.09V71m-2.64,3.44V70.07H18.6v-.69h.62l.37.38a1.37,1.37,0,0,1,1-.46,1.74,1.74,0,0,1,0,3.48,1.31,1.31,0,0,1-1-.4v2.1Z"/><path id="Tracé_307" data-name="Tracé 307" class="cls-1" d="M25.46,71a1,1,0,1,0-.95,1,1,1,0,0,0,.95-1v0m.77,0a1.72,1.72,0,1,1-1.72-1.73A1.73,1.73,0,0,1,26.23,71"/></g><path id="Tracé_308" data-name="Tracé 308" class="cls-1" d="M27.26,67.34l-.25.25v4.78l.32.33h.74V72h-.29V67.34Z"/><g id="Groupe_316" data-name="Groupe 316"><path id="Tracé_309" data-name="Tracé 309" class="cls-1" d="M29.31,70.63h1.6a.79.79,0,0,0-.79-.65.82.82,0,0,0-.81.65m1.58,1,.62.34a1.6,1.6,0,0,1-1.38.84,1.75,1.75,0,0,1,0-3.48A1.61,1.61,0,0,1,31.67,71h0l-.29.28h-2.1a.85.85,0,0,0,.85.82.92.92,0,0,0,.76-.46"/><path id="Tracé_310" data-name="Tracé 310" class="cls-1" d="M6.3.46c-.44,0-2.25,0-3.74,0C-.27.4,0,.78,0,1.65v41.8a4.58,4.58,0,0,0,.22,2.11.9.9,0,0,0,.8.27l.73,0H13.07c.52,0,.56-.07.56-5.06,0-4.18,0-4.59-.49-4.59H13l-4.22.34a2.61,2.61,0,0,1-.4,0,1.5,1.5,0,0,1-.86-.17,25.29,25.29,0,0,1-.21-4.26V1.25c0-.56-.52-.76-1-.8M5.88,1.84V32.09c0,1.71,0,5,.84,5.77a2.5,2.5,0,0,0,1.69.48,4.1,4.1,0,0,0,.5,0l3.25-.27c0,.8,0,1.88,0,2.7,0,1,0,2.35,0,3.23H1.48V1.82a4.15,4.15,0,0,1,1.68-.11c.9,0,1.81,0,2.71.13"/><path id="Tracé_311" data-name="Tracé 311" class="cls-1" d="M29.13,44.25h3.2a16,16,0,0,0,2.49-.14c-1-8.61-1.67-14.66-2.28-20.5s-1.24-12-2.31-20.86c-.07-.61-.46-.75-2-.73h-.43L26.69,2a15.85,15.85,0,0,0-3.64.11c-.43,4.05-.8,7.49-1.12,10.58C20.84,23,20.12,29.78,18.42,44a13.15,13.15,0,0,0,2.94.21H24l0,0v0c.06-.6.89-6.14,1-6.77v-.07l0-.06a1,1,0,0,1,.81-.69c.13,0,.48,0,.8-.05s1.08,0,1.34.5c.07.14.17.33.85,5.56.08.58.2,1.26.27,1.65m3.41,1.53H28.72l-.09,0a1.22,1.22,0,0,1-.74-.47c-.11-.15-.23-.32-.53-2.47-.24-1.84-.52-3.85-.66-4.73h-.24c-.29,1.94-.87,5.82-.91,6.26a1.59,1.59,0,0,1-1.4,1.44h-2.8c-3,0-3.84-.3-4.24-.74a1,1,0,0,1-.26-.75v0c1.73-14.53,2.45-21.37,3.56-31.73.33-3.16.7-6.65,1.14-10.8C21.71.25,24.15.35,26.74.46l1.08,0h.4c1.14,0,3.25-.06,3.5,2.07,1.07,8.83,1.7,15,2.32,20.88s1.25,12.05,2.31,20.82a1,1,0,0,1-.26.83c-.51.58-1.56.69-3.56.69"/></g></g></svg>