<?xml version="1.0" encoding="UTF-8"?>
<svg id="a" data-name="logos" xmlns="http://www.w3.org/2000/svg" width="20.9mm" height="29.7mm" viewBox="0 0 59.2 84.2">
  <defs>
    <style>
      .b {
        fill: #fff;
      }
    </style>
  </defs>
  <g>
    <path class="b" d="m.8,72.2h1.8c1.4,0,2.6-1.1,2.6-2.5h0c0-1-.5-1.5-.9-2,.5-.5.8-1,.8-1.7,0-1.4-1.1-2.4-2.5-2.4H.8c-.4,0-.8.4-.8.8v7.1c0,.4.4.8.8.8Zm2.8-2.6h0c0,.6-.4,1.1-1,1.1h-1v-2.2h1c.5,0,1,.5,1,1.1Zm0-3.6c0,.6-.4,1-.9,1h-1v-1.9h1c.6,0,.9.3.9.9Z"/>
    <path class="b" d="m9.2,72.3c1.4,0,2.5-1.1,2.5-2.5v-3.8c0-1.4-1.1-2.5-2.5-2.5h-.1c-1.4,0-2.5,1.1-2.5,2.5v3.8c0,1.4,1.1,2.5,2.5,2.5h.1Zm1-2.5c0,.5-.4.9-1,.9h-.1c-.6,0-1-.4-1-1v-3.8c0-.5.4-.9,1-.9h.1c.6,0,1,.4,1,.9v3.8Z"/>
    <path class="b" d="m14.8,68.7h.7l1.5,3.1c.1.3.4.4.7.4s.8-.3.8-.7,0-.2,0-.3l-1.3-2.7c.9-.4,1.5-1.3,1.5-2.3h0c0-1.5-1.1-2.6-2.5-2.6h-1.9c-.4,0-.8.4-.8.8v7.2c0,.5.4.8.8.8s.8-.2.8-.8v-2.8Zm2.2-2.6h0c0,.7-.4,1.1-.9,1.1h-1.2v-2.1h1.2c.5,0,.9.4.9,1Z"/>
    <path class="b" d="m25.2,69.7v-3.7c0-1.4-1.1-2.5-2.5-2.5h-1.9c-.4,0-.8.4-.8.8v7.1c0,.4.4.8.8.8h1.9c1.4,0,2.5-1.1,2.5-2.5Zm-1.5,0c0,.5-.4.9-1,.9h-1.1v-5.6h1.1c.6,0,1,.4,1,.9v3.7Z"/>
    <path class="b" d="m31.9,71.5c0-.4-.2-.8-.8-.8h-2.9v-2.2h1.9c.5,0,.8-.4.8-.8s-.2-.8-.8-.8h-1.9v-1.9h2.9c.5,0,.8-.4.8-.8s-.3-.8-.8-.8h-3.6c-.4,0-.8.4-.8.8v7.1c0,.4.4.8.8.8h3.6c.5,0,.8-.4.8-.8Z"/>
    <path class="b" d="m37.3,70.3l.4,1.5c.1.3.4.5.7.5s.8-.3.8-.7,0-.2,0-.3l-2.2-7.2c-.2-.6-.5-.6-.8-.6s-.7,0-.8.6l-2.3,7.2c0,0,0,.2,0,.3,0,.5.4.7.8.7s.6-.2.7-.5l.4-1.5h2.4Zm-.5-1.5h-1.4l.7-2.4.7,2.4Z"/>
    <path class="b" d="m42.9,72.3h.1c1.4,0,2.5-1.1,2.5-2.5v-5.5c0-.5-.4-.8-.8-.8s-.8.2-.8.8v5.5c0,.5-.4,1-1,1h-.1c-.6,0-1-.4-1-1v-5.5c0-.5-.4-.8-.8-.8s-.8.2-.8.8v5.5c0,1.4,1.1,2.5,2.5,2.5Z"/>
    <path class="b" d="m48.4,71.9l1.2-2.4,1.2,2.4c.2.3.5.4.7.4.4,0,.8-.3.8-.7s0-.2,0-.4l-1.7-3.4,1.6-3.2c0-.1,0-.3,0-.4,0-.4-.4-.7-.8-.7s-.5.2-.7.4l-1.1,2.1-1.1-2.1c-.1-.3-.4-.4-.7-.4-.4,0-.8.3-.8.7s0,.2,0,.4l1.6,3.2-1.7,3.4c0,.1,0,.3,0,.4,0,.5.4.7.8.7s.5-.1.7-.4Z"/>
    <path class="b" d="m5.8,75.4h-.2c-.5,0-.7.3-.8.6l-1.5,3.4-1.5-3.4c-.1-.3-.3-.6-.8-.6h-.2c-.4,0-.8.4-.8.8v7.3c0,.5.4.8.8.8s.8-.2.8-.8v-4.3l.9,2.2c.1.3.4.5.8.5s.6-.2.8-.5l.9-2.2v4.3c0,.5.4.8.8.8s.8-.2.8-.8v-7.3c0-.4-.4-.8-.8-.8Z"/>
    <path class="b" d="m12.6,77c.5,0,.8-.4.8-.8s-.3-.8-.8-.8h-3.6c-.4,0-.8.4-.8.8v7.1c0,.4.4.8.8.8h3.6c.5,0,.8-.4.8-.8s-.2-.8-.8-.8h-2.9v-2.2h1.9c.5,0,.8-.4.8-.8s-.2-.8-.8-.8h-1.9v-1.9h2.9Z"/>
    <path class="b" d="m18.9,75.5h-3.4c-.5,0-.8.4-.8.8s.2.8.8.8h.9v6.4c0,.5.4.8.8.8s.8-.2.8-.8v-6.4h.9c.5,0,.8-.4.8-.8s-.3-.8-.8-.8Z"/>
    <path class="b" d="m23.9,75.5h-1.9c-.4,0-.8.4-.8.8v7.2c0,.5.4.8.8.8s.8-.2.8-.8v-2.8h.7l1.5,3.1c.1.3.4.4.7.4s.8-.3.8-.7,0-.2,0-.3l-1.3-2.7c.9-.4,1.5-1.3,1.5-2.3h0c0-1.5-1.1-2.6-2.5-2.6Zm1,2.5h0c0,.7-.4,1.1-.9,1.1h-1.2v-2.1h1.2c.5,0,.9.4.9,1Z"/>
    <path class="b" d="m30.6,75.4h-.1c-1.4,0-2.5,1.1-2.5,2.5v3.8c0,1.4,1.1,2.5,2.5,2.5h.1c1.4,0,2.5-1.1,2.5-2.5v-3.8c0-1.4-1.1-2.5-2.5-2.5Zm1,2.5v3.8c0,.5-.4.9-1,.9h-.1c-.6,0-1-.4-1-1v-3.8c0-.5.4-.9,1-.9h.1c.6,0,1,.4,1,.9Z"/>
    <path class="b" d="m37.3,75.5h-1.9c-.4,0-.8.4-.8.8v7.2c0,.5.4.8.8.8s.8-.2.8-.8v-2.9h1.1c1.4,0,2.5-1.1,2.5-2.5s-1.1-2.5-2.5-2.5Zm1,2.5c0,.6-.4,1-1,1h-1.1v-2h1.1c.5,0,1,.4,1,1Z"/>
    <path class="b" d="m43.7,75.4h-.1c-1.4,0-2.5,1.1-2.5,2.5v3.8c0,1.4,1.1,2.5,2.5,2.5h.1c1.4,0,2.5-1.1,2.5-2.5v-3.8c0-1.4-1.1-2.5-2.5-2.5Zm1,6.3c0,.5-.4.9-1,.9h-.1c-.6,0-1-.4-1-1v-3.8c0-.5.4-.9,1-.9h.1c.6,0,1,.4,1,.9v3.8Z"/>
    <path class="b" d="m51.8,82.6h-2.4v-6.4c0-.5-.4-.8-.8-.8s-.8.2-.8.8v7.2c0,.4.4.8.8.8h3.2c.5,0,.8-.4.8-.8s-.2-.8-.8-.8Z"/>
    <path class="b" d="m58.4,82.6h-2.9v-2.2h1.9c.5,0,.8-.4.8-.8s-.2-.8-.8-.8h-1.9v-1.9h2.9c.5,0,.8-.4.8-.8s-.3-.8-.8-.8h-3.6c-.4,0-.8.4-.8.8v7.1c0,.4.4.8.8.8h3.6c.5,0,.8-.4.8-.8s-.2-.8-.8-.8Z"/>
    <path class="b" d="m11.3,72.9l-1.7.9c-.3.1-.4.4-.4.7s.3.8.7.8.2,0,.3,0l1.7-.8c.3-.1.4-.4.4-.7s-.3-.8-.7-.8-.2,0-.3,0Z"/>
    <path class="b" d="m.8,72.2h1.8c1.4,0,2.6-1.1,2.6-2.5h0c0-1-.5-1.5-.9-2,.5-.5.8-1,.8-1.7,0-1.4-1.1-2.4-2.5-2.4H.8c-.4,0-.8.4-.8.8v7.1c0,.4.4.8.8.8Zm2.8-2.6h0c0,.6-.4,1.1-1,1.1h-1v-2.2h1c.5,0,1,.5,1,1.1Zm0-3.6c0,.6-.4,1-.9,1h-1v-1.9h1c.6,0,.9.3.9.9Z"/>
    <path class="b" d="m9.2,72.3c1.4,0,2.5-1.1,2.5-2.5v-3.8c0-1.4-1.1-2.5-2.5-2.5h-.1c-1.4,0-2.5,1.1-2.5,2.5v3.8c0,1.4,1.1,2.5,2.5,2.5h.1Zm1-2.5c0,.5-.4.9-1,.9h-.1c-.6,0-1-.4-1-1v-3.8c0-.5.4-.9,1-.9h.1c.6,0,1,.4,1,.9v3.8Z"/>
    <path class="b" d="m14.8,68.7h.7l1.5,3.1c.1.3.4.4.7.4s.8-.3.8-.7,0-.2,0-.3l-1.3-2.7c.9-.4,1.5-1.3,1.5-2.3h0c0-1.5-1.1-2.6-2.5-2.6h-1.9c-.4,0-.8.4-.8.8v7.2c0,.5.4.8.8.8s.8-.2.8-.8v-2.8Zm2.2-2.6h0c0,.7-.4,1.1-.9,1.1h-1.2v-2.1h1.2c.5,0,.9.4.9,1Z"/>
    <path class="b" d="m25.2,69.7v-3.7c0-1.4-1.1-2.5-2.5-2.5h-1.9c-.4,0-.8.4-.8.8v7.1c0,.4.4.8.8.8h1.9c1.4,0,2.5-1.1,2.5-2.5Zm-1.5,0c0,.5-.4.9-1,.9h-1.1v-5.6h1.1c.6,0,1,.4,1,.9v3.7Z"/>
    <path class="b" d="m31.9,71.5c0-.4-.2-.8-.8-.8h-2.9v-2.2h1.9c.5,0,.8-.4.8-.8s-.2-.8-.8-.8h-1.9v-1.9h2.9c.5,0,.8-.4.8-.8s-.3-.8-.8-.8h-3.6c-.4,0-.8.4-.8.8v7.1c0,.4.4.8.8.8h3.6c.5,0,.8-.4.8-.8Z"/>
    <path class="b" d="m37.3,70.3l.4,1.5c.1.3.4.5.7.5s.8-.3.8-.7,0-.2,0-.3l-2.2-7.2c-.2-.6-.5-.6-.8-.6s-.7,0-.8.6l-2.3,7.2c0,0,0,.2,0,.3,0,.5.4.7.8.7s.6-.2.7-.5l.4-1.5h2.4Zm-.5-1.5h-1.4l.7-2.4.7,2.4Z"/>
    <path class="b" d="m42.9,72.3h.1c1.4,0,2.5-1.1,2.5-2.5v-5.5c0-.5-.4-.8-.8-.8s-.8.2-.8.8v5.5c0,.5-.4,1-1,1h-.1c-.6,0-1-.4-1-1v-5.5c0-.5-.4-.8-.8-.8s-.8.2-.8.8v5.5c0,1.4,1.1,2.5,2.5,2.5Z"/>
    <path class="b" d="m48.4,71.9l1.2-2.4,1.2,2.4c.2.3.5.4.7.4.4,0,.8-.3.8-.7s0-.2,0-.4l-1.7-3.4,1.6-3.2c0-.1,0-.3,0-.4,0-.4-.4-.7-.8-.7s-.5.2-.7.4l-1.1,2.1-1.1-2.1c-.1-.3-.4-.4-.7-.4-.4,0-.8.3-.8.7s0,.2,0,.4l1.6,3.2-1.7,3.4c0,.1,0,.3,0,.4,0,.5.4.7.8.7s.5-.1.7-.4Z"/>
    <path class="b" d="m5.8,75.4h-.2c-.5,0-.7.3-.8.6l-1.5,3.4-1.5-3.4c-.1-.3-.3-.6-.8-.6h-.2c-.4,0-.8.4-.8.8v7.3c0,.5.4.8.8.8s.8-.2.8-.8v-4.3l.9,2.2c.1.3.4.5.8.5s.6-.2.8-.5l.9-2.2v4.3c0,.5.4.8.8.8s.8-.2.8-.8v-7.3c0-.4-.4-.8-.8-.8Z"/>
    <path class="b" d="m12.6,77c.5,0,.8-.4.8-.8s-.3-.8-.8-.8h-3.6c-.4,0-.8.4-.8.8v7.1c0,.4.4.8.8.8h3.6c.5,0,.8-.4.8-.8s-.2-.8-.8-.8h-2.9v-2.2h1.9c.5,0,.8-.4.8-.8s-.2-.8-.8-.8h-1.9v-1.9h2.9Z"/>
    <path class="b" d="m18.9,75.5h-3.4c-.5,0-.8.4-.8.8s.2.8.8.8h.9v6.4c0,.5.4.8.8.8s.8-.2.8-.8v-6.4h.9c.5,0,.8-.4.8-.8s-.3-.8-.8-.8Z"/>
    <path class="b" d="m23.9,75.5h-1.9c-.4,0-.8.4-.8.8v7.2c0,.5.4.8.8.8s.8-.2.8-.8v-2.8h.7l1.5,3.1c.1.3.4.4.7.4s.8-.3.8-.7,0-.2,0-.3l-1.3-2.7c.9-.4,1.5-1.3,1.5-2.3h0c0-1.5-1.1-2.6-2.5-2.6Zm1,2.5h0c0,.7-.4,1.1-.9,1.1h-1.2v-2.1h1.2c.5,0,.9.4.9,1Z"/>
    <path class="b" d="m30.6,75.4h-.1c-1.4,0-2.5,1.1-2.5,2.5v3.8c0,1.4,1.1,2.5,2.5,2.5h.1c1.4,0,2.5-1.1,2.5-2.5v-3.8c0-1.4-1.1-2.5-2.5-2.5Zm1,2.5v3.8c0,.5-.4.9-1,.9h-.1c-.6,0-1-.4-1-1v-3.8c0-.5.4-.9,1-.9h.1c.6,0,1,.4,1,.9Z"/>
    <path class="b" d="m37.3,75.5h-1.9c-.4,0-.8.4-.8.8v7.2c0,.5.4.8.8.8s.8-.2.8-.8v-2.9h1.1c1.4,0,2.5-1.1,2.5-2.5s-1.1-2.5-2.5-2.5Zm1,2.5c0,.6-.4,1-1,1h-1.1v-2h1.1c.5,0,1,.4,1,1Z"/>
    <path class="b" d="m43.7,75.4h-.1c-1.4,0-2.5,1.1-2.5,2.5v3.8c0,1.4,1.1,2.5,2.5,2.5h.1c1.4,0,2.5-1.1,2.5-2.5v-3.8c0-1.4-1.1-2.5-2.5-2.5Zm1,6.3c0,.5-.4.9-1,.9h-.1c-.6,0-1-.4-1-1v-3.8c0-.5.4-.9,1-.9h.1c.6,0,1,.4,1,.9v3.8Z"/>
    <path class="b" d="m51.8,82.6h-2.4v-6.4c0-.5-.4-.8-.8-.8s-.8.2-.8.8v7.2c0,.4.4.8.8.8h3.2c.5,0,.8-.4.8-.8s-.2-.8-.8-.8Z"/>
    <path class="b" d="m58.4,82.6h-2.9v-2.2h1.9c.5,0,.8-.4.8-.8s-.2-.8-.8-.8h-1.9v-1.9h2.9c.5,0,.8-.4.8-.8s-.3-.8-.8-.8h-3.6c-.4,0-.8.4-.8.8v7.1c0,.4.4.8.8.8h3.6c.5,0,.8-.4.8-.8s-.2-.8-.8-.8Z"/>
    <path class="b" d="m11.3,72.9l-1.7.9c-.3.1-.4.4-.4.7s.3.8.7.8.2,0,.3,0l1.7-.8c.3-.1.4-.4.4-.7s-.3-.8-.7-.8-.2,0-.3,0Z"/>
  </g>
  <path class="b" d="m57.5,23c-.4-.4-1-.3-1.4,0l-5.4,6.1c0-.3-.1-.6-.4-.8-.4-.3-1.1-.2-1.4.2l-1.7,2.4,9.6-17.5c.3-.5,0-1.1-.4-1.4-.5-.3-1.1,0-1.4.4l-12.1,22,5.6-17.5c.2-.5-.1-1.1-.6-1.3-.5-.2-1.1.1-1.3.6l-2.5,7.8L49.2,1.2c.1-.5-.2-1.1-.8-1.2-.5-.1-1.1.2-1.2.8l-8.3,38-3.3-21.7c0-.5-.6-.9-1.1-.8-.5,0-.9.6-.8,1.1l2.5,16.4-3.2-9.3c-.2-.5-.7-.8-1.3-.6-.5.2-.8.7-.6,1.3l3.5,9.9-1.6-2.7c-.3-.5-.9-.6-1.4-.4-.5.3-.6.9-.4,1.4l1,1.7-8.5-9.8c-.4-.4-1-.5-1.4-.1-.4.4-.5,1-.1,1.4l6.9,8-14.2-12.3c-.4-.4-1-.3-1.4.1-.4.4-.3,1,.1,1.4l11.5,9.9c-.2,0-.5.2-.6.4-.2.3-.2.6-.1.9l-11.6-6.6c-.5-.3-1.1-.1-1.4.4-.3.5-.1,1.1.4,1.4l12.2,6.9-5.1-2.1c-.5-.2-1.1,0-1.3.5-.2.5,0,1.1.5,1.3l10.8,4.5-4.2-.9c-.5-.1-1.1.2-1.2.8-.1.5.2,1.1.8,1.2l2.3.5-23.8-1c-.5,0-1,.4-1,1,0,.5.4,1,1,1l33.3,1.4-7.4,5.6c-.4.3-.5,1-.2,1.4.2.3.5.4.8.4s.4,0,.6-.2l5.5-4.1-6.7,11.2c-.3.5-.1,1.1.3,1.4.2,0,.3.1.5.1.3,0,.7-.2.9-.5l6.1-10.2-.3,1.5c-.1.5.2,1.1.7,1.2,0,0,.2,0,.2,0,.5,0,.9-.3,1-.8v-.2s.2,6.9.2,6.9c0,.5.5,1,1,1h0c.6,0,1-.5,1-1l-.3-11.3,3.8,5.2c.2.3.5.4.8.4s.4,0,.6-.2c.4-.3.5-.9.2-1.4l-2.6-3.5,8.1,5.2c.2.1.4.2.5.2.3,0,.6-.2.8-.5.3-.5.2-1.1-.3-1.4l-6.7-4.3,2.3.7c0,0,.2,0,.3,0,.4,0,.8-.3,1-.7.2-.5-.1-1.1-.7-1.2l-5.6-1.7,12.7-3c.5-.1.9-.7.7-1.2-.1-.5-.7-.9-1.2-.7l-7.7,1.8.6-.3c.5-.2.7-.8.4-1.3,0-.1-.1-.2-.2-.3l7.3-4.9c.5-.3.6-.9.3-1.4-.3-.5-.9-.6-1.4-.3l-6.2,4.2,2.3-2.2c.4-.4.4-1,0-1.4,0-.1-.2-.2-.3-.2l7.7-8.7c.4-.4.3-1,0-1.4Z"/>
</svg>