<svg id="magnifier" data-name="magnifier" xmlns="http://www.w3.org/2000/svg" viewBox="0 0 47.34 47.34"><defs><style>.cls-1{fill:#fff;}</style></defs><path class="cls-1" d="M22,10.13a7.23,7.23,0,1,0-.84,14.43,8,8,0,0,0,2.23-.31,7.74,7.74,0,0,0,3.67-2.31,7,7,0,0,0,1.75-4.59A7.23,7.23,0,0,0,22,10.13Z"/><path class="cls-1" d="M23.67,0A23.67,23.67,0,1,0,47.34,23.67,23.67,23.67,0,0,0,23.67,0ZM36.19,38.85l-.12.08a2.29,2.29,0,0,1-3-.62L25.31,27.07a11.66,11.66,0,0,1-4,.71c-6.09,0-11-4.66-11-10.4S15.2,7,21.29,7s11,4.66,11,10.41A10.08,10.08,0,0,1,29,24.8l7.71,11.25A2,2,0,0,1,36.19,38.85Z"/></svg>