<?xml version="1.0" encoding="UTF-8"?>
<svg id="b" data-name="Calque 2" xmlns="http://www.w3.org/2000/svg" viewBox="0 0 58.2 58.2">
  <defs>
    <style>
      .c {
        fill: #fff;
        stroke-width: 0px;
      }
    </style>
  </defs>
  <path class="c" d="m30.3,34.8c-1.2.5-2.6.5-3.9.1-.1,0-.3,0-.4,0l-4.9,4.2h14.5c-1.7-1.5-3.4-3-5.1-4.4,0,0-.2,0-.3,0Z"/>
  <path class="c" d="m29.1,0C13,0,0,13,0,29.1s13,29.1,29.1,29.1,29.1-13,29.1-29.1,0,0,0,0C58.2,13,45.2,0,29.1,0c0,0,0,0,0,0ZM9.4,45.9v-2.2h1.4v-2.2h-1.4v-2.2h9.1c.2,0,.4,0,.6-.2,1.9-1.6,3.8-3.3,5.7-4.9h.2c-1.1-1.9-1.4-4-.8-6,.2-1.2,1.2-2.1,2.4-2.2h.3v-3.4h.7V4.5h1.4v18.1h.7v5.1c-.5,0-1-.1-1.4-.2-.8-.2-1.6.3-1.9,1.1-.5,1.1-.4,2.3.2,3.3,0,.1.2.3.3.4l.9-.8c.3-.3.8-.4,1.1-.1,0,0,0,0,0,0,0,0,0,0,0,0,.2.2.4.3.6.5.2-.3.4-.6.6-.9.3-.5.7-1,1.1-1.4.5-.5,1.2-.6,1.8-.3.3.1.6.4.5.8,0,.4-.3.6-.7.7-.5,0-.9.5-1,1-.1.5-.3,1-.5,1.5,0,.1,0,.3.1.4,2,1.8,4.1,3.6,6.1,5.3.2,0,.3.1.5.1h11.7v2.2h-2.1v2.2h2.2v2.2H9.4Z"/>
</svg>