<?xml version="1.0" encoding="UTF-8"?>
<svg id="c" xmlns="http://www.w3.org/2000/svg" version="1.1" viewBox="0 0 58.2 58.2">
  <defs>
    <style>
      .cls-1 {
        fill: #205c66;
      }

      .cls-1, .cls-2 {
        stroke-width: 0px;
      }

      .cls-2 {
        fill: #fff;
      }
    </style>
  </defs>
  <path class="cls-1" d="M29.1,0C13,0,0,13,0,29.1s13,29.1,29.1,29.1,29.1-13,29.1-29.1,0,0,0,0C58.2,13,45.2,0,29.1,0h0Z"/>
  <g>
    <path class="cls-2" d="M20.9,22.8c-.8-.4-.5-.8,0-1.5.4-3.4,1.5-8.1,7.9-8.1s7.8,4.4,8.1,8.3c.5.3,1.5,1,.2,1.4-.9.3-.8.4-1.4.3,0,0-.7,2.9-6.9,2.9s-7-2.9-7-2.9c-.5,0-.6-.2-1-.3h0Z"/>
    <path class="cls-2" d="M9.9,44c-.4-7,4.6-11.7,14.7-12-1.5-2.3-2-3.2-2-6.4s2.2-7.1,6.3-7.1,6.3,3.2,6.2,6.8-.9,5.9-2.2,6.9c11.4,0,15.9,4.3,15.4,11.8H9.9Z"/>
    <path class="cls-1" d="M35.7,24.2s-.7,3.7-6.7,3.7-6.9-3.6-6.9-3.6l-.2-1.1s2.8,3.1,6.9,3c4.1-.1,6.9-3,6.9-3v1Z"/>
    <path class="cls-1" d="M24.1,13.4l1.9,6.5c.4.4.8.4,1.1,0l-.7-7.2-2.3.7Z"/>
    <path class="cls-1" d="M33.3,13.4l-1.9,6.5c-.4.4-.8.4-1.1,0l.7-7.2,2.3.7Z"/>
  </g>
</svg>